w1000b1r0.ufo
<glyph name="_31" format="2">
  <advance width="1000"/>
  <unicode hex="011F"/>
  
  <outline>
    <component base="cap" xOffset="0" yOffset="0.000" />
    <component base="cap" xOffset="0" yOffset="310.000" />
    <contour>
      <point x="0.000" y="0.000" type="line"/>
      <point x="0.000" y="310.000" type="line"/>
      <point x="1.000" y="310.000" type="line"/>
      <point x="1.000" y="0.000" type="line"/>
    </contour>
  </outline>
</glyph>
<glyph name="_35" format="2">
  <advance width="1000"/>
  <unicode hex="0123"/>
  
  <outline>
    <component base="cap" xOffset="0" yOffset="0.000" />
    <component base="cap" xOffset="0" yOffset="350.000" />
    <contour>
      <point x="0.000" y="0.000" type="line"/>
      <point x="0.000" y="350.000" type="line"/>
      <point x="1.000" y="350.000" type="line"/>
      <point x="1.000" y="0.000" type="line"/>
    </contour>
  </outline>
</glyph>
<glyph name="_42" format="2">
  <advance width="1000"/>
  <unicode hex="012A"/>
  <unicode hex="2584"/><unicode hex="0076"/>
  <outline>
    <component base="cap" xOffset="0" yOffset="0" />
    <component base="cap" xOffset="0" yOffset="420" />
    <contour>
      <point x="0" y="0" type="line"/>
      <point x="0" y="420" type="line"/>
      <point x="1" y="420" type="line"/>
      <point x="1" y="0" type="line"/>
    </contour>
  </outline>
</glyph>
<glyph name="_43" format="2">
  <advance width="1000"/>
  <unicode hex="012B"/>
  
  <outline>
    <component base="cap" xOffset="0" yOffset="0.000" />
    <component base="cap" xOffset="0" yOffset="430.000" />
    <contour>
      <point x="0.000" y="0.000" type="line"/>
      <point x="0.000" y="430.000" type="line"/>
      <point x="1.000" y="430.000" type="line"/>
      <point x="1.000" y="0.000" type="line"/>
    </contour>
  </outline>
</glyph>
<glyph name="_56" format="2">
  <advance width="1000"/>
  <unicode hex="0138"/>
  <unicode hex="2585"/><unicode hex="0043"/>
  <outline>
    <component base="cap" xOffset="0" yOffset="0.000" />
    <component base="cap" xOffset="0" yOffset="560.000" />
    <contour>
      <point x="0.000" y="0.000" type="line"/>
      <point x="0.000" y="560.000" type="line"/>
      <point x="1.000" y="560.000" type="line"/>
      <point x="1.000" y="0.000" type="line"/>
    </contour>
  </outline>
</glyph>
<glyph name="_89" format="2">
  <advance width="1000"/>
  <unicode hex="0159"/>
  
  <outline>
    <component base="cap" xOffset="0" yOffset="0.000" />
    <component base="cap" xOffset="0" yOffset="890.000" />
    <contour>
      <point x="0.000" y="0.000" type="line"/>
      <point x="0.000" y="890.000" type="line"/>
      <point x="1.000" y="890.000" type="line"/>
      <point x="1.000" y="0.000" type="line"/>
    </contour>
  </outline>
</glyph>
<glyph name="_107" format="2">
  <advance width="1000"/>
  <unicode hex="016B"/>
  
  <outline>
    <component base="cap" xOffset="0" yOffset="0" />
    <component base="cap" xOffset="0" yOffset="1070" />
    <contour>
      <point x="0" y="0" type="line"/>
      <point x="0" y="1070" type="line"/>
      <point x="1" y="1070" type="line"/>
      <point x="1" y="0" type="line"/>
    </contour>
  </outline>
</glyph>
<glyph name="_11.center" format="2">
  <advance width="1000"/>
  <unicode hex="040B"/>
  
  <outline>
    <component base="cap" xOffset="0" yOffset="445.000" />
    <component base="cap" xOffset="0" yOffset="555.000" />
    <contour>
      <point x="0.000" y="445.000" type="line"/>
      <point x="0.000" y="555.000" type="line"/>
      <point x="1.000" y="555.000" type="line"/>
      <point x="1.000" y="445.000" type="line"/>
    </contour>
  </outline>
</glyph>
<glyph name="_12.center" format="2">
  <advance width="1000"/>
  <unicode hex="040C"/>
  
  <outline>
    <component base="cap" xOffset="0" yOffset="440.000" />
    <component base="cap" xOffset="0" yOffset="560.000" />
    <contour>
      <point x="0.000" y="440.000" type="line"/>
      <point x="0.000" y="560.000" type="line"/>
      <point x="1.000" y="560.000" type="line"/>
      <point x="1.000" y="440.000" type="line"/>
    </contour>
  </outline>
</glyph>
<glyph name="_15.center" format="2">
  <advance width="1000"/>
  <unicode hex="040F"/>
  
  <outline>
    <component base="cap" xOffset="0" yOffset="425.000" />
    <component base="cap" xOffset="0" yOffset="575.000" />
    <contour>
      <point x="0.000" y="425.000" type="line"/>
      <point x="0.000" y="575.000" type="line"/>
      <point x="1.000" y="575.000" type="line"/>
      <point x="1.000" y="425.000" type="line"/>
    </contour>
  </outline>
</glyph>
<glyph name="_27.center" format="2">
  <advance width="1000"/>
  <unicode hex="041B"/>
  
  <outline>
    <component base="cap" xOffset="0" yOffset="365.000" />
    <component base="cap" xOffset="0" yOffset="635.000" />
    <contour>
      <point x="0.000" y="365.000" type="line"/>
      <point x="0.000" y="635.000" type="line"/>
      <point x="1.000" y="635.000" type="line"/>
      <point x="1.000" y="365.000" type="line"/>
    </contour>
  </outline>
</glyph>
<glyph name="_34.center" format="2">
  <advance width="1000"/>
  <unicode hex="0422"/>
  
  <outline>
    <component base="cap" xOffset="0" yOffset="330" />
    <component base="cap" xOffset="0" yOffset="670" />
    <contour>
      <point x="0" y="330" type="line"/>
      <point x="0" y="670" type="line"/>
      <point x="1" y="670" type="line"/>
      <point x="1" y="330" type="line"/>
    </contour>
  </outline>
</glyph>
<glyph name="_36.center" format="2">
  <advance width="1000"/>
  <unicode hex="0424"/>
  
  <outline>
    <component base="cap" xOffset="0" yOffset="320.000" />
    <component base="cap" xOffset="0" yOffset="680.000" />
    <contour>
      <point x="0.000" y="320.000" type="line"/>
      <point x="0.000" y="680.000" type="line"/>
      <point x="1.000" y="680.000" type="line"/>
      <point x="1.000" y="320.000" type="line"/>
    </contour>
  </outline>
</glyph>
<glyph name="_37.center" format="2">
  <advance width="1000"/>
  <unicode hex="0425"/>
  
  <outline>
    <component base="cap" xOffset="0" yOffset="315.000" />
    <component base="cap" xOffset="0" yOffset="685.000" />
    <contour>
      <point x="0.000" y="315.000" type="line"/>
      <point x="0.000" y="685.000" type="line"/>
      <point x="1.000" y="685.000" type="line"/>
      <point x="1.000" y="315.000" type="line"/>
    </contour>
  </outline>
</glyph>
<glyph name="_41.center" format="2">
  <advance width="1000"/>
  <unicode hex="0429"/>
  
  <outline>
    <component base="cap" xOffset="0" yOffset="295.000" />
    <component base="cap" xOffset="0" yOffset="705.000" />
    <contour>
      <point x="0.000" y="295.000" type="line"/>
      <point x="0.000" y="705.000" type="line"/>
      <point x="1.000" y="705.000" type="line"/>
      <point x="1.000" y="295.000" type="line"/>
    </contour>
  </outline>
</glyph>
<glyph name="_46.center" format="2">
  <advance width="1000"/>
  <unicode hex="042E"/>
  
  <outline>
    <component base="cap" xOffset="0" yOffset="270.000" />
    <component base="cap" xOffset="0" yOffset="730.000" />
    <contour>
      <point x="0.000" y="270.000" type="line"/>
      <point x="0.000" y="730.000" type="line"/>
      <point x="1.000" y="730.000" type="line"/>
      <point x="1.000" y="270.000" type="line"/>
    </contour>
  </outline>
</glyph>
<glyph name="_47.center" format="2">
  <advance width="1000"/>
  <unicode hex="042F"/>
  
  <outline>
    <component base="cap" xOffset="0" yOffset="265.000" />
    <component base="cap" xOffset="0" yOffset="735.000" />
    <contour>
      <point x="0.000" y="265.000" type="line"/>
      <point x="0.000" y="735.000" type="line"/>
      <point x="1.000" y="735.000" type="line"/>
      <point x="1.000" y="265.000" type="line"/>
    </contour>
  </outline>
</glyph>
<glyph name="_49.center" format="2">
  <advance width="1000"/>
  <unicode hex="0431"/>
  
  <outline>
    <component base="cap" xOffset="0" yOffset="255.000" />
    <component base="cap" xOffset="0" yOffset="745.000" />
    <contour>
      <point x="0.000" y="255.000" type="line"/>
      <point x="0.000" y="745.000" type="line"/>
      <point x="1.000" y="745.000" type="line"/>
      <point x="1.000" y="255.000" type="line"/>
    </contour>
  </outline>
</glyph>
<glyph name="_51.center" format="2">
  <advance width="1000"/>
  <unicode hex="0433"/>
  
  <outline>
    <component base="cap" xOffset="0" yOffset="245" />
    <component base="cap" xOffset="0" yOffset="755" />
    <contour>
      <point x="0" y="245" type="line"/>
      <point x="0" y="755" type="line"/>
      <point x="1" y="755" type="line"/>
      <point x="1" y="245" type="line"/>
    </contour>
  </outline>
</glyph>
<glyph name="_58.center" format="2">
  <advance width="1000"/>
  <unicode hex="043A"/>
  
  <outline>
    <component base="cap" xOffset="0" yOffset="210.000" />
    <component base="cap" xOffset="0" yOffset="790.000" />
    <contour>
      <point x="0.000" y="210.000" type="line"/>
      <point x="0.000" y="790.000" type="line"/>
      <point x="1.000" y="790.000" type="line"/>
      <point x="1.000" y="210.000" type="line"/>
    </contour>
  </outline>
</glyph>
<glyph name="_69.center" format="2">
  <advance width="1000"/>
  <unicode hex="0445"/>
  
  <outline>
    <component base="cap" xOffset="0" yOffset="155.000" />
    <component base="cap" xOffset="0" yOffset="845.000" />
    <contour>
      <point x="0.000" y="155.000" type="line"/>
      <point x="0.000" y="845.000" type="line"/>
      <point x="1.000" y="845.000" type="line"/>
      <point x="1.000" y="155.000" type="line"/>
    </contour>
  </outline>
</glyph>
<glyph name="_71.center" format="2">
  <advance width="1000"/>
  <unicode hex="0447"/>
  
  <outline>
    <component base="cap" xOffset="0" yOffset="145.000" />
    <component base="cap" xOffset="0" yOffset="855.000" />
    <contour>
      <point x="0.000" y="145.000" type="line"/>
      <point x="0.000" y="855.000" type="line"/>
      <point x="1.000" y="855.000" type="line"/>
      <point x="1.000" y="145.000" type="line"/>
    </contour>
  </outline>
</glyph>
<glyph name="_80.center" format="2">
  <advance width="1000"/>
  <unicode hex="0450"/>
  
  <outline>
    <component base="cap" xOffset="0" yOffset="100.000" />
    <component base="cap" xOffset="0" yOffset="900.000" />
    <contour>
      <point x="0.000" y="100.000" type="line"/>
      <point x="0.000" y="900.000" type="line"/>
      <point x="1.000" y="900.000" type="line"/>
      <point x="1.000" y="100.000" type="line"/>
    </contour>
  </outline>
</glyph>
<glyph name="_87.center" format="2">
  <advance width="1000"/>
  <unicode hex="0457"/>
  
  <outline>
    <component base="cap" xOffset="0" yOffset="65.000" />
    <component base="cap" xOffset="0" yOffset="935.000" />
    <contour>
      <point x="0.000" y="65.000" type="line"/>
      <point x="0.000" y="935.000" type="line"/>
      <point x="1.000" y="935.000" type="line"/>
      <point x="1.000" y="65.000" type="line"/>
    </contour>
  </outline>
</glyph>
<glyph name="_94.center" format="2">
  <advance width="1000"/>
  <unicode hex="045E"/>
  
  <outline>
    <component base="cap" xOffset="0" yOffset="30.000" />
    <component base="cap" xOffset="0" yOffset="970.000" />
    <contour>
      <point x="0.000" y="30.000" type="line"/>
      <point x="0.000" y="970.000" type="line"/>
      <point x="1.000" y="970.000" type="line"/>
      <point x="1.000" y="30.000" type="line"/>
    </contour>
  </outline>
</glyph>
<glyph name="_100.center" format="2">
  <advance width="1000"/>
  <unicode hex="0464"/>
  
  <outline>
    <component base="cap" xOffset="0" yOffset="0.000" />
    <component base="cap" xOffset="0" yOffset="1000.000" />
    <contour>
      <point x="0.000" y="0.000" type="line"/>
      <point x="0.000" y="1000.000" type="line"/>
      <point x="1.000" y="1000.000" type="line"/>
      <point x="1.000" y="0.000" type="line"/>
    </contour>
  </outline>
</glyph>
<glyph name="_103.center" format="2">
  <advance width="1000"/>
  <unicode hex="0467"/>
  
  <outline>
    <component base="cap" xOffset="0" yOffset="-15.000" />
    <component base="cap" xOffset="0" yOffset="1015.000" />
    <contour>
      <point x="0.000" y="-15.000" type="line"/>
      <point x="0.000" y="1015.000" type="line"/>
      <point x="1.000" y="1015.000" type="line"/>
      <point x="1.000" y="-15.000" type="line"/>
    </contour>
  </outline>
</glyph>
<glyph name="_26.clip" format="2">
  <advance width="1000"/>
  
  <outline>
    <contour>
        <point x="0.000" y="260.000"/>

        <point x="0.000" y="260.000"/>
        <point x="0.000" y="260.000" type="curve" smooth="yes"/>
        <point x="1.000" y="260.000" type="line"/>
        <point x="1.000" y="260.000"/>

        <point x="1.000" y="260.000"/>
        <point x="1.000" y="260.000" type="curve" smooth="yes"/>
        <point x="1.000" y="0.000" type="line"/>
        <point x="1.000" y="0.000"/>

        <point x="1.000" y="0.000"/>
        <point x="1.000" y="0.000" type="curve" smooth="yes"/>
        <point x="0.000" y="0.000" type="line"/>
        <point x="0.000" y="0.000"/>

        <point x="0.000" y="0.000"/>
        <point x="0.000" y="0.000" type="curve" smooth="yes"/>
        <point x="0.000" y="260.000" type="line"/>
    </contour>
  </outline>
</glyph>
<glyph name="_49.clip.center" format="2">
  <advance width="1000"/>
  
  <outline>
    <contour>
        <point x="0.000" y="745.000"/>

        <point x="0.000" y="745.000"/>
        <point x="0.000" y="745.000" type="curve" smooth="yes"/>
        <point x="1.000" y="745.000" type="line"/>
        <point x="1.000" y="745.000"/>

        <point x="1.000" y="745.000"/>
        <point x="1.000" y="745.000" type="curve" smooth="yes"/>
        <point x="1.000" y="255.000" type="line"/>
        <point x="1.000" y="255.000"/>

        <point x="1.000" y="255.000"/>
        <point x="1.000" y="255.000" type="curve" smooth="yes"/>
        <point x="0.000" y="255.000" type="line"/>
        <point x="0.000" y="255.000"/>

        <point x="0.000" y="255.000"/>
        <point x="0.000" y="255.000" type="curve" smooth="yes"/>
        <point x="0.000" y="745.000" type="line"/>
    </contour>
  </outline>
</glyph>
<glyph name="_77.clip.center" format="2">
  <advance width="1000"/>
  
  <outline>
    <contour>
        <point x="0.000" y="885.000"/>

        <point x="0.000" y="885.000"/>
        <point x="0.000" y="885.000" type="curve" smooth="yes"/>
        <point x="1.000" y="885.000" type="line"/>
        <point x="1.000" y="885.000"/>

        <point x="1.000" y="885.000"/>
        <point x="1.000" y="885.000" type="curve" smooth="yes"/>
        <point x="1.000" y="115.000" type="line"/>
        <point x="1.000" y="115.000"/>

        <point x="1.000" y="115.000"/>
        <point x="1.000" y="115.000" type="curve" smooth="yes"/>
        <point x="0.000" y="115.000" type="line"/>
        <point x="0.000" y="115.000"/>

        <point x="0.000" y="115.000"/>
        <point x="0.000" y="115.000" type="curve" smooth="yes"/>
        <point x="0.000" y="885.000" type="line"/>
    </contour>
  </outline>
</glyph>
